<svg xmlns="http://www.w3.org/2000/svg" viewBox="0 0 64 64" width="64" height="64" role="img" aria-label="Falconext">
  <defs>
    <linearGradient id="fx" x1="0" y1="0" x2="1" y2="1">
      <stop offset="0" stop-color="#FFAB00"/>
      <stop offset="1" stop-color="#6366F1"/>
    </linearGradient>
  </defs>
  <rect width="64" height="64" rx="15" fill="url(#fx)"/>
  <!-- Letra F -->
  <path fill="#0a0a0c"
        d="M22 16 h22 a2 2 0 0 1 2 2 v5 a2 2 0 0 1-2 2 H31 v4 h11 a2 2 0 0 1 2 2 v5 a2 2 0 0 1-2 2 H31 v8 a2 2 0 0 1-2 2 h-5 a2 2 0 0 1-2-2 V18 a2 2 0 0 1 2-2 z"/>
</svg>
